<svg width="18" height="18" viewBox="0 0 18 18" fill="none" xmlns="http://www.w3.org/2000/svg">
<path d="M11.3906 5.625C11.3906 5.51311 11.4351 5.40581 11.5142 5.32669C11.5933 5.24757 11.7006 5.20312 11.8125 5.20312H16.3125C16.4244 5.20312 16.5317 5.24757 16.6108 5.32669C16.6899 5.40581 16.7344 5.51311 16.7344 5.625C16.7344 5.73689 16.6899 5.84419 16.6108 5.92331C16.5317 6.00243 16.4244 6.04688 16.3125 6.04688H11.8125C11.7006 6.04688 11.5933 6.00243 11.5142 5.92331C11.4351 5.84419 11.3906 5.73689 11.3906 5.625ZM17.2969 10.6875C17.2969 10.7994 17.2524 10.9067 17.1733 10.9858C17.0942 11.0649 16.9869 11.1094 16.875 11.1094H11.707C11.8074 11.6612 12.098 12.1604 12.5284 12.5201C12.9587 12.8799 13.5016 13.0773 14.0625 13.0781C14.3766 13.0801 14.6878 13.0189 14.9777 12.8981C15.2676 12.7773 15.5303 12.5994 15.75 12.375C15.83 12.2973 15.9372 12.2538 16.0488 12.2538C16.1604 12.2538 16.2676 12.2973 16.3477 12.375C16.3879 12.4137 16.4198 12.4601 16.4417 12.5115C16.4635 12.5628 16.4748 12.618 16.4748 12.6738C16.4748 12.7296 16.4635 12.7848 16.4417 12.8362C16.4198 12.8875 16.3879 12.934 16.3477 12.9727C15.8181 13.5014 15.1215 13.8301 14.3767 13.9028C13.6319 13.9755 12.885 13.7877 12.2631 13.3714C11.6413 12.955 11.183 12.336 10.9665 11.6196C10.75 10.9033 10.7885 10.1341 11.0756 9.44299C11.3626 8.7519 11.8805 8.18174 12.5408 7.82966C13.2011 7.47759 13.9631 7.36538 14.6969 7.51217C15.4307 7.65896 16.0909 8.05566 16.565 8.63467C17.0391 9.21368 17.2978 9.93916 17.2969 10.6875ZM16.418 10.2656C16.3217 9.71071 16.0327 9.20758 15.6017 8.84495C15.1708 8.48232 14.6257 8.28348 14.0625 8.28348C13.4993 8.28348 12.9542 8.48232 12.5233 8.84495C12.0923 9.20758 11.8033 9.71071 11.707 10.2656H16.418ZM9.70313 11.1094C9.70313 11.8553 9.40681 12.5707 8.87936 13.0981C8.35192 13.6256 7.63655 13.9219 6.89063 13.9219H2.25C2.13811 13.9219 2.03081 13.8774 1.95169 13.7983C1.87257 13.7192 1.82812 13.6119 1.82812 13.5V4.5C1.82812 4.38811 1.87257 4.28081 1.95169 4.20169C2.03081 4.12257 2.13811 4.07813 2.25 4.07813H6.04688C6.55307 4.07805 7.04765 4.22975 7.46676 4.51362C7.88586 4.7975 8.21022 5.20051 8.39796 5.6706C8.58569 6.14069 8.62817 6.65627 8.51991 7.15075C8.41165 7.64523 8.15762 8.09589 7.79063 8.44453C8.34811 8.63283 8.83249 8.99123 9.17558 9.46928C9.51867 9.94733 9.70317 10.521 9.70313 11.1094ZM2.67188 8.29688H6.04688C6.49443 8.29687 6.92365 8.11909 7.24012 7.80262C7.55659 7.48615 7.73438 7.05693 7.73438 6.60938C7.73438 6.16182 7.55659 5.7326 7.24012 5.41613C6.92365 5.09966 6.49443 4.92188 6.04688 4.92188H2.67188V8.29688ZM8.85938 11.1094C8.85752 10.5878 8.64951 10.0881 8.28069 9.71931C7.91188 9.35049 7.4122 9.14248 6.89063 9.14062H2.67188V13.0781H6.89063C7.4122 13.0763 7.91188 12.8683 8.28069 12.4994C8.64951 12.1306 8.85752 11.6309 8.85938 11.1094Z" fill="currentColor"></path>
</svg>