<svg width="18" height="18" viewBox="0 0 18 18" fill="none" xmlns="http://www.w3.org/2000/svg">
<path d="M17.2617 4.90081C17.2299 4.82425 17.1763 4.75875 17.1075 4.71248C17.0388 4.66621 16.9579 4.64123 16.875 4.64066H14.6531C14.3785 4.13625 13.9745 3.71407 13.4827 3.41749C12.9909 3.12092 12.4289 2.96065 11.8547 2.95316C10.9918 2.9494 10.1626 3.28762 9.54855 3.89379C8.93448 4.49996 8.58554 5.3247 8.57811 6.18753V6.79925C5.59686 6.08909 3.13592 3.66331 3.1078 3.64222C3.05359 3.58871 2.98591 3.55087 2.91194 3.53272C2.83796 3.51457 2.76045 3.51679 2.68763 3.53914C2.61482 3.56149 2.54941 3.60314 2.49835 3.65966C2.4473 3.71619 2.4125 3.78548 2.39764 3.86019C1.78592 7.20706 2.79139 9.443 3.74061 10.7297C4.24405 11.4187 4.86248 12.0157 5.56874 12.4946C4.47889 13.8164 2.68592 14.5055 2.66483 14.5125C2.60493 14.5346 2.55092 14.5702 2.50702 14.6165C2.46311 14.6629 2.4305 14.7187 2.41171 14.7797C2.39175 14.8392 2.38582 14.9026 2.39435 14.9648C2.40289 15.027 2.42567 15.0864 2.46092 15.1383C2.53124 15.2438 3.2203 16.1719 5.62499 16.1719C10.5258 16.1719 14.625 12.3821 15.0187 7.51644L17.1703 5.35784C17.2313 5.3007 17.2729 5.22593 17.2893 5.14398C17.3057 5.06203 17.296 4.97701 17.2617 4.90081ZM14.3086 7.03128C14.2354 7.10425 14.1927 7.20225 14.1891 7.3055C13.9008 11.8055 10.139 15.3282 5.62499 15.3282C4.64764 15.3282 4.02186 15.1594 3.64921 14.9907C4.44374 14.5899 5.74452 13.8024 6.53905 12.6071C6.5707 12.5575 6.592 12.5021 6.60167 12.4441C6.61134 12.3861 6.60917 12.3267 6.5953 12.2696C6.58031 12.2111 6.55315 12.1564 6.51559 12.1092C6.47803 12.0619 6.43091 12.0231 6.37733 11.9953C6.36327 11.9953 5.30858 11.4469 4.39452 10.1953C3.30467 8.70472 2.87577 6.88362 3.11483 4.78128C4.14139 5.65316 6.35624 7.29847 8.92967 7.72738C8.99024 7.73888 9.05262 7.73674 9.11225 7.72111C9.17189 7.70548 9.2273 7.67675 9.27444 7.63702C9.32158 7.59729 9.35927 7.54754 9.38477 7.49141C9.41027 7.43528 9.42295 7.37417 9.42186 7.31253V6.18753C9.42743 5.55035 9.68495 4.94126 10.1381 4.49333C10.5914 4.0454 11.2034 3.79502 11.8406 3.79691C12.301 3.80355 12.7499 3.94225 13.1338 4.19653C13.5177 4.4508 13.8205 4.80994 14.0062 5.23128C14.0383 5.30708 14.0922 5.37161 14.1611 5.41669C14.2299 5.46176 14.3107 5.48534 14.393 5.48441H15.8555L14.3086 7.03128Z" fill="currentColor"></path>
</svg>